Coordinates
version=1
nRows=29
nColumns=24
inDegrees=yes

Units are S.I. units (second, meters, Newtons, ...)
Angles are in degrees.

endheader
time	pelvis_tilt	pelvis_list	pelvis_rotation	pelvis_tx	pelvis_ty	pelvis_tz	hip_flexion_r	hip_adduction_r	hip_rotation_r	knee_angle_r	ankle_angle_r	subtalar_angle_r	mtp_angle_r	hip_flexion_l	hip_adduction_l	hip_rotation_l	knee_angle_l	ankle_angle_l	subtalar_angle_l	mtp_angle_l	lumbar_extension	lumbar_bending	lumbar_rotation
      0.99133333	     -2.26132324	     -3.51531890	     -1.07073997	     -0.10828204	      1.01817050	      0.29687133	    -10.74720720	      8.78614914	      2.42087553	     -7.20840208	     10.07398405	     -6.28558692	      4.42453633	     20.08528707	     -3.25652102	     -1.72107295	      5.74588646	      3.49989689	     -5.46152168	     -2.94253729	     -4.04145679	      1.92703782	      4.78981436
      0.99550000	     -2.34160258	     -3.47124487	     -1.15339813	     -0.10232503	      1.01754616	      0.29654131	    -10.73135794	      8.69507267	      2.39140446	     -7.79226615	     10.22468295	     -6.13929142	      4.42358652	     20.11793534	     -3.16207941	     -1.41058643	      5.65912943	      3.43350829	     -5.33127501	     -2.78974763	     -3.91598268	      1.87854742	      4.85037305
      0.99966667	     -2.39642167	     -3.41781563	     -1.23381379	     -0.09636370	      1.01699043	      0.29621329	    -10.71916061	      8.59576616	      2.37002653	     -8.42151197	     10.36202037	     -6.01358821	      4.43938054	     20.12606500	     -3.05811630	     -1.11007149	      5.50066418	      3.32952767	     -5.22730882	     -2.61431313	     -3.82047729	      1.81249924	      4.91813139
      1.00383333	     -2.44615028	     -3.34394868	     -1.31135816	     -0.09038165	      1.01647757	      0.29586746	    -10.68649332	      8.47551703	      2.34179957	     -9.09974513	     10.47306653	     -5.91280664	      4.47145561	     20.13279892	     -2.93099896	     -0.83243737	      5.27125895	      3.18551705	     -5.14002204	     -2.42381642	     -3.72968738	      1.72176598	      4.98007275
      1.00800000	     -2.47245949	     -3.27175055	     -1.39070139	     -0.08440346	      1.01602247	      0.29549998	    -10.64582290	      8.35376185	      2.30100195	     -9.84224462	     10.57550714	     -5.77606550	      5.02163550	     20.11864269	     -2.80574914	     -0.60371265	      4.98723600	      2.91420245	     -5.06316547	      0.21119090	     -3.69763645	      1.66817555	      4.99224564
      1.01216667	     -2.46923912	     -3.16919707	     -1.44299493	     -0.07838817	      1.01563453	      0.29511885	    -10.63717018	      8.21376360	      2.29852156	    -10.57221924	     10.54360544	     -5.87484312	      5.02916112	     20.08600503	     -2.63940337	     -0.36137197	      4.61235617	      2.77774865	     -5.00771826	      0.22658374	     -3.68469473	      1.53727921	      5.03743754
      1.01633333	     -2.54259762	     -3.06316279	     -1.52675971	     -0.07235409	      1.01516811	      0.29475853	    -10.48737824	      8.06121549	      2.26646448	    -11.43218226	     10.61735404	     -5.76118339	      5.07862563	     20.11959681	     -2.48119238	     -0.11023605	      4.22339986	      2.51086641	     -5.02824278	      0.29806525	     -3.54484005	      1.40544381	      5.15371504
      1.02050000	     -2.54329529	     -2.95998470	     -1.59343363	     -0.06634174	      1.01482736	      0.29434508	    -10.38152055	      7.90744247	      2.17329228	    -12.35104538	     10.66765210	     -5.61085393	      5.18976482	     20.08653974	     -2.31723437	      0.13066413	      3.77787550	      2.23310237	     -5.11726626	      0.45569891	     -3.52069473	      1.29982445	      5.24930258
      1.02466667	     -2.56232971	     -2.84455240	     -1.65930537	     -0.06030401	      1.01449954	      0.29394196	    -10.23590785	      7.74769168	      2.11358614	    -13.30330110	     10.64654639	     -5.56536718	      5.33656654	     20.07487889	     -2.14258557	      0.34808151	      3.29486466	      1.91374926	     -5.20892760	      0.64812206	     -3.46572385	      1.16500195	      5.31009445
      1.02883333	     -2.56781441	     -2.71843826	     -1.71908937	     -0.05425295	      1.01420713	      0.29351509	    -10.07446215	      7.57542160	      2.03488364	    -14.31166211	     10.59359147	     -5.51755540	      5.53800270	     20.04797188	     -1.95409708	      0.56546836	      2.78686918	      1.56041049	     -5.35042854	      0.88624507	     -3.42706100	      1.01968737	      5.37404382
      1.03300000	     -2.53356951	     -2.57275483	     -1.77781734	     -0.04818210	      1.01401790	      0.29307686	     -9.92410182	      7.37729420	      1.92120763	    -15.37493130	     10.51053068	     -5.44651391	      5.84559704	     19.97017964	     -1.74511296	      0.76956891	      2.27051016	      1.16250570	     -5.54897173	      1.21005823	     -3.43461652	      0.84451535	      5.44400238
      1.03716667	     -2.45123489	     -2.41737807	     -1.81286126	     -0.04209766	      1.01392584	      0.29261650	     -9.82306052	      7.17966611	      1.84196812	    -16.42368403	     10.26258925	     -5.59658226	      5.88924376	     19.86550450	     -1.52036170	      0.88506089	      1.68315864	      0.88118193	     -5.56430139	      1.25276061	     -3.52270367	      0.66838136	      5.45342784
      1.04133333	     -2.45857619	     -2.27161441	     -1.85517063	     -0.03600831	      1.01372085	      0.29214192	     -9.56464575	      6.98289975	      1.68900345	    -17.58443560	      9.96616965	     -5.62372791	      8.88902837	     19.81858894	     -1.30860638	      1.18935946	      1.17488368	      0.29802141	     -6.02974271	      3.73492623	     -3.45457699	      0.48060143	      5.47458119
      1.04550000	     -2.39883714	     -2.07708217	     -1.91225759	     -0.02989478	      1.01366282	      0.29166614	     -9.34510825	      6.72036182	      1.50840428	    -18.80884970	      9.71253538	     -5.56262801	      8.93297345	     19.72824937	     -1.05208301	      1.23617291	      0.57634207	     -0.03772515	     -6.08359381	      3.74879142	     -3.48528597	      0.23404045	      5.53233768
      1.04966667	     -2.35232838	     -1.90765939	     -1.95483361	     -0.02384874	      1.01360328	      0.29112935	     -9.05919815	      6.47508697	      1.25859819	    -20.12280383	      9.48811693	     -5.39907225	      9.07865995	     19.66089825	     -0.81468334	      1.37891561	     -0.03866761	     -0.42392780	     -6.34982562	      3.78934844	     -3.51490667	      0.05146272	      5.60631358
      1.05383333	     -2.29136304	     -1.69939457	     -1.98972107	     -0.01773017	      1.01361425	      0.29060106	     -8.78234910	      6.19073680	      1.02314257	    -21.42565904	      9.05099454	     -5.41302230	      9.18483614	     19.56418717	     -0.53927512	      1.48127032	     -0.64182706	     -0.76340588	     -6.50883602	      3.81360133	     -3.54417082	     -0.20285803	      5.62022110
      1.05800000	     -2.24953280	     -1.51280991	     -2.02146632	     -0.01169861	      1.01360853	      0.29001894	     -8.42064697	      5.91025580	      0.70559256	    -22.84201449	      8.70047731	     -5.23879840	      9.48755208	     19.50027546	     -0.28170061	      1.64647539	     -1.26492377	     -1.16281215	     -6.88775188	      3.86885900	     -3.56681581	     -0.40677449	      5.66009074
      1.06216667	     -2.17789791	     -1.29129614	     -2.04873502	     -0.00562574	      1.01368779	      0.28942150	     -8.07129027	      5.58114761	      0.36489850	    -24.27590389	      8.21128511	     -5.12640185	      9.94762377	     19.39373763	      0.01159549	      1.77256687	     -1.87576776	     -1.52201065	     -7.19085010	      3.93329496	     -3.62021608	     -0.66952631	      5.67387516
      1.06633333	     -2.02957914	     -1.07305003	     -2.06586429	      0.00046386	      1.01393108	      0.28882883	     -7.80066342	      5.25231116	      0.02714648	    -25.68335500	      7.50912534	     -5.17771952	     10.04960168	     19.21437423	      0.29931086	      1.79737262	     -2.51970675	     -1.69995696	     -7.28994183	      3.94387474	     -3.75882219	     -0.94186632	      5.67709874
      1.07050000	     -1.97715008	     -0.82395791	     -2.07742300	      0.00653068	      1.01403365	      0.28816078	     -7.37222611	      4.86530078	     -0.38277012	    -27.17363100	      6.73039163	     -5.13073910	     15.09978870	     19.11920944	      0.62815162	      1.97877391	     -3.11817818	     -2.03322612	     -7.68897237	      4.26282179	     -3.77863305	     -1.21653875	      5.65710233
      1.07466667	     -1.85033948	     -0.58640144	     -2.09356256	      0.01258533	      1.01429430	      0.28750672	     -7.00709155	      4.48023066	     -0.78723264	    -28.68087795	      5.95245627	     -5.06501957	     15.12422879	     18.96417794	      0.93575600	      1.98062297	     -3.76820517	     -2.15862790	     -7.74606355	      4.25730166	     -3.91412863	     -1.48092981	      5.66268827
      1.07883333	     -1.75317529	     -0.33598118	     -2.10255267	      0.01860081	      1.01452630	      0.28681704	     -6.56698258	      4.06066122	     -1.24481663	    -30.25103824	      5.16979086	     -4.92890065	     15.24307769	     18.84641595	      1.26003852	      1.99730610	     -4.42634721	     -2.29084089	     -7.88004344	      4.23646904	     -4.00763100	     -1.77222451	      5.64784901
      1.08300000	     -1.60808990	     -0.08492081	     -2.10498052	      0.02464452	      1.01485943	      0.28612146	     -6.17405153	      3.62792805	     -1.70729321	    -31.79785124	      4.20496100	     -4.88799999	     15.29503133	     18.65979991	      1.58582644	      2.01011554	     -5.05912381	     -2.32974715	     -7.98433824	      4.22510394	     -4.14963740	     -2.06049389	      5.63724426
      1.08716667	     -1.50508472	      0.17938673	     -2.09534885	      0.03065178	      1.01514604	      0.28536121	     -5.70721977	      3.16171638	     -2.19413862	    -33.36658950	      3.15120673	     -4.84501729	     18.46489395	     18.50694525	      1.93690389	      2.11611579	     -5.66414153	     -2.42445663	     -8.24143412	      3.55047990	     -4.25262616	     -2.34761523	      5.51050091
      1.09133333	     -1.35930570	      0.42467828	     -2.08586273	      0.03665410	      1.01554039	      0.28462064	     -5.27724146	      2.70569837	     -2.67441294	    -34.92570781	      2.04174720	     -4.81424655	     18.46720240	     18.31135456	      2.26027123	      2.11396610	     -6.28292456	     -2.37428489	     -8.27048784	      3.54724073	     -4.39779396	     -2.62180428	      5.52512938
      1.09550000	     -1.25837327	      0.67702235	     -2.06475242	      0.04261568	      1.01587100	      0.28386265	     -4.77602960	      2.23570629	     -3.15051017	    -36.49897619	      0.86836229	     -4.86128329	     18.52583358	     18.17132528	      2.59168521	      2.09929712	     -6.91340658	     -2.30964014	     -8.27220189	      3.52074494	     -4.50450050	     -2.91330695	      5.47854423
      1.09966667	     -1.10180320	      0.92935721	     -2.04583104	      0.04859017	      1.01631114	      0.28307376	     -4.32814765	      1.74055194	     -3.64232849	    -38.05409126	     -0.35314293	     -4.84346396	     18.55705108	     17.93766889	      2.92966947	      2.10652214	     -7.48039772	     -2.19252942	     -8.31999264	      3.50173615	     -4.65621478	     -3.17944527	      5.44158161
      1.10383333	     -1.00144104	      1.15503391	     -2.00623823	      0.05449576	      1.01668432	      0.28228783	     -3.80833878	      1.28383233	     -4.10433883	    -39.58915058	     -1.67450060	     -5.00663326	     18.65271400	     17.77701565	      3.23941958	      2.11007787	     -8.06823157	     -2.06655545	     -8.32461882	      3.44139727	     -4.77621381	     -3.42715399	      5.33575804
      1.10800000	     -0.85993943	      1.38479626	     -1.96504792	      0.06039879	      1.01713595	      0.28148435	     -3.32642726	      0.80359607	     -4.57623832	    -41.10514461	     -3.00579705	     -5.12778908	     18.75095485	     17.54221148	      3.55818937	      2.12114796	     -8.59735201	     -1.90311267	     -8.33258026	      3.36477205	     -4.93626870	     -3.67227912	      5.24524619
